<svg id="Layer_1" xmlns="http://www.w3.org/2000/svg" viewBox="0 0 26 26"><style>.st0{fill:#212121;}</style><path class="st0" d="M21.7 10.6h-9.5c-1.4 0-2.6 1.1-2.6 2.6V19c0 1.4 1.1 2.6 2.6 2.6h6l2.9 2.9c.1.1.2.1.4.1h.2c.2-.1.3-.3.3-.5v-2.5c1.3-.2 2.2-1.2 2.2-2.5v-5.8c.1-1.6-1.1-2.7-2.5-2.7zm1.6 8.4c0 .8-.7 1.5-1.5 1.5h-.2c-.3 0-.5.2-.5.5v1.8l-2.2-2.2c-.1-.1-.2-.1-.4-.1h-6.2c-.8 0-1.5-.7-1.5-1.5v-5.8c0-.8.7-1.5 1.5-1.5h9.5c.8 0 1.5.7 1.5 1.5V19zm0 0"/><path class="st0" d="M20.8 14.2h-7.5c-.3 0-.5.2-.5.5s.2.5.5.5h7.5c.3 0 .5-.2.5-.5s-.3-.5-.5-.5zm0 0M20.8 17h-7.5c-.3 0-.5.2-.5.5s.2.5.5.5h7.5c.3 0 .5-.2.5-.5 0-.2-.3-.5-.5-.5zm0 0"/></svg>